<svg xmlns="http://www.w3.org/2000/svg" viewBox="0 0 400 300">
  <!-- 底纸：浅卷底色 -->
  <rect x="4" y="4" width="392" height="292"
        rx="3" ry="3"
        fill="#EDE4D3" fill-opacity="0.97"/>
  <!-- 左边：从上到下，粗→细→粗 的毛笔竖线 -->
  <path d="M 6,8 C 5,8 4,12 4,20
           L 4,140 C 3.5,150 3.5,160 4,170
           L 4,280 C 4,288 5,292 6,292"
        stroke="#3D3428" stroke-opacity="0.55"
        stroke-width="2.5" fill="none"
        stroke-linecap="round" stroke-linejoin="round"/>
  <!-- 上边：从左到右，行笔→渐淡→收笔 -->
  <path d="M 8,5 C 8,4.5 14,4 30,4
           L 200,3.5 C 260,3.5 350,4 392,5
           C 394,5 396,6 396,8"
        stroke="#3D3428" stroke-opacity="0.50"
        stroke-width="2.2" fill="none"
        stroke-linecap="round" stroke-linejoin="round"/>
  <!-- 右边：略细于左边，表现笔力渐弱 -->
  <path d="M 396,10 L 396,145
           C 396.5,152 396.5,158 396,165
           L 396,290 C 396,292 395,294 394,294"
        stroke="#3D3428" stroke-opacity="0.40"
        stroke-width="1.8" fill="none"
        stroke-linecap="round" stroke-linejoin="round"/>
  <!-- 下边：最淡，枯笔收尾 -->
  <path d="M 392,296 L 200,296.5
           C 100,296.5 40,296 8,295
           C 6,294.5 5,293 5,292"
        stroke="#3D3428" stroke-opacity="0.30"
        stroke-width="1.5" fill="none"
        stroke-linecap="round" stroke-linejoin="round"/>
  <!-- 左上角：浓墨点（起笔顿笔） -->
  <circle cx="6" cy="6" r="3"
          fill="#2C2418" fill-opacity="0.45"/>
</svg>
